<svg xmlns="http://www.w3.org/2000/svg" version="1.1" xmlns:xlink="http://www.w3.org/1999/xlink" viewBox="0 0 10.242288696329751 9.093843628377282"><g transform="matrix(0.8494800500390408,0,0,0.8494800500390408,1.4552368349766942,6.7655510239620495)"><g transform="matrix(1,0,0,1,0,0)" clip-path="url(#SvgjsClipPath123367)"><path d=" M 0 -6.35299926798503 L 6.10299926798503 -6.35299926798503 L 6.10299926798503 -0.25 L 0 -0.25 Z" fill="#1c3423" transform="matrix(1,0,0,1,0,0)" fill-rule="nonzero" mask="url(#maskedMgText-b5662c2d-d43a-4d95-b8de-68196aee4af7)"></path></g><g><path d=" M 0.378 0.894 L 0.7065 0.894 L 0.7065 1.119 L 0.084 1.119 L 0.084 0.06149999999999989 L 0.378 0.06149999999999989 L 0.378 0.894 M 1.053041748046875 1.05975 Q 0.928541748046875 0.99 0.855791748046875 0.86625 Q 0.783041748046875 0.7424999999999999 0.783041748046875 0.5865 Q 0.783041748046875 0.4305 0.855791748046875 0.30674999999999997 Q 0.928541748046875 0.18299999999999994 1.053041748046875 0.11399999999999988 Q 1.1775417480468748 0.04499999999999993 1.326041748046875 0.04499999999999993 Q 1.476041748046875 0.04499999999999993 1.5997917480468749 0.11399999999999988 Q 1.723541748046875 0.18299999999999994 1.795541748046875 0.30674999999999997 Q 1.867541748046875 0.4305 1.867541748046875 0.5865 Q 1.867541748046875 0.7424999999999999 1.795541748046875 0.86625 Q 1.723541748046875 0.99 1.5990417480468748 1.05975 Q 1.474541748046875 1.1295 1.326041748046875 1.1295 Q 1.1775417480468748 1.1295 1.053041748046875 1.05975 M 1.503791748046875 0.7829999999999999 Q 1.569041748046875 0.7095 1.569041748046875 0.5865 Q 1.569041748046875 0.4605 1.503791748046875 0.38774999999999993 Q 1.438541748046875 0.31499999999999995 1.326041748046875 0.31499999999999995 Q 1.212041748046875 0.31499999999999995 1.147541748046875 0.38774999999999993 Q 1.083041748046875 0.4605 1.083041748046875 0.5865 Q 1.083041748046875 0.711 1.147541748046875 0.78375 Q 1.212041748046875 0.8565 1.326041748046875 0.8565 Q 1.438541748046875 0.8565 1.503791748046875 0.7829999999999999 M 2.667022705078125 0.9465 L 2.292022705078125 0.9465 L 2.235022705078125 1.119 L 1.926022705078125 1.119 L 2.311522705078125 0.06149999999999989 L 2.650522705078125 0.06149999999999989 L 3.0345227050781247 1.119 L 2.724022705078125 1.119 L 2.667022705078125 0.9465 M 2.593522705078125 0.7215 L 2.479522705078125 0.37949999999999995 L 2.3670227050781247 0.7215 L 2.593522705078125 0.7215 M 4.108530029296875 1.119 L 3.8145300292968747 1.119 L 3.423030029296875 0.528 L 3.423030029296875 1.119 L 3.129030029296875 1.119 L 3.129030029296875 0.06149999999999989 L 3.423030029296875 0.06149999999999989 L 3.8145300292968747 0.6599999999999999 L 3.8145300292968747 0.06149999999999989 L 4.108530029296875 0.06149999999999989 L 4.108530029296875 1.119 M 4.569052001953125 0.06149999999999989 L 4.569052001953125 1.119 L 4.275052001953124 1.119 L 4.275052001953124 0.06149999999999989 L 4.569052001953125 0.06149999999999989 M 5.532027099609374 0.06149999999999989 L 5.532027099609374 0.2955 L 5.250027099609374 0.2955 L 5.250027099609374 1.119 L 4.956027099609375 1.119 L 4.956027099609375 0.2955 L 4.677027099609375 0.2955 L 4.677027099609375 0.06149999999999989 L 5.532027099609374 0.06149999999999989 M 5.844032958984375 0.687 Q 5.937032958984375 0.6045 6.000032958984375 0.5167499999999999 Q 6.063032958984374 0.42899999999999994 6.063032958984374 0.34950000000000003 Q 6.063032958984374 0.3015 6.041282958984374 0.27449999999999997 Q 6.0195329589843745 0.24749999999999994 5.977532958984375 0.24749999999999994 Q 5.934032958984375 0.24749999999999994 5.910032958984375 0.28425 Q 5.886032958984375 0.32099999999999995 5.887532958984375 0.39149999999999996 L 5.602532958984375 0.39149999999999996 Q 5.607032958984375 0.258 5.661032958984375 0.17025 Q 5.7150329589843745 0.08250000000000002 5.802032958984375 0.04125000000000001 Q 5.889032958984375 0 5.995532958984374 0 Q 6.180032958984374 0 6.270032958984375 0.09149999999999991 Q 6.360032958984375 0.18299999999999994 6.360032958984375 0.3285 Q 6.360032958984375 0.48449999999999993 6.2557829589843745 0.621 Q 6.151532958984375 0.7575000000000001 5.995532958984374 0.8654999999999999 L 6.370532958984374 0.8654999999999999 L 6.370532958984374 1.104 L 5.605532958984375 1.104 L 5.605532958984375 0.8835 Q 5.751032958984375 0.7695 5.844032958984375 0.687 M 7.726487548828125 0.06149999999999989 L 7.726487548828125 1.119 L 7.432487548828124 1.119 L 7.432487548828124 0.5355 L 7.232987548828125 1.119 L 6.986987548828124 1.119 L 6.785987548828125 0.531 L 6.785987548828125 1.119 L 6.491987548828124 1.119 L 6.491987548828124 0.06149999999999989 L 6.847487548828124 0.06149999999999989 L 7.112987548828125 0.7484999999999999 L 7.372487548828125 0.06149999999999989 L 7.726487548828125 0.06149999999999989 M 8.18698388671875 0.29699999999999993 L 8.18698388671875 0.46950000000000003 L 8.52448388671875 0.46950000000000003 L 8.52448388671875 0.6930000000000001 L 8.18698388671875 0.6930000000000001 L 8.18698388671875 0.8835 L 8.56948388671875 0.8835 L 8.56948388671875 1.119 L 7.892983886718749 1.119 L 7.892983886718749 0.06149999999999989 L 8.56948388671875 0.06149999999999989 L 8.56948388671875 0.29699999999999993 L 8.18698388671875 0.29699999999999993" fill="#1c3423" fill-rule="nonzero"></path></g><g></g></g><defs><clipPath id="SvgjsClipPath123367"><path d=" M 0 -6.35299926798503 h 6.10299926798503 v 6.10299926798503 h -6.10299926798503 Z"></path></clipPath><mask id="maskedMgText-b5662c2d-d43a-4d95-b8de-68196aee4af7"><path d=" M 0 -6.35299926798503 L 6.10299926798503 -6.35299926798503 L 6.10299926798503 -0.25 L 0 -0.25 Z" fill="#ffffff" transform="matrix(1,0,0,1,0,0)" fill-rule="nonzero"></path><path d=" M 3.19204362326089 -3.085120569036682 C 3.432464806545149 -3.5400714235592026 3.6395969029131257 -3.847070780676025 3.724669013921402 -4.390792533641964 C 3.7320665887916866 -4.442575557733958 3.735765376226829 -4.49065979439081 3.735765376226829 -4.531346456177377 C 3.735765376226829 -4.734779765110211 3.650693265218553 -4.827249450988773 3.5138381301182826 -4.827249450988773 C 3.0551884881606197 -4.827249450988773 2.796273367700649 -3.7324083701866098 2.755586705914082 -3.392119926153505 C 2.733393981303227 -3.210879341831525 2.7222976189978 -3.044433907250115 2.7222976189978 -2.889084834974133 C 2.7222976189978 -2.5857842652924523 2.7703818556546516 -2.349061869443336 2.881345478708925 -2.2454958212593477 C 2.9775139520226284 -2.156724922815929 3.0699836379011893 -2.104941898723935 3.173549686085178 -2.104941898723935 C 3.351091482972015 -2.104941898723935 3.5471272170345642 -2.256592183564775 3.806042337494535 -2.615374564773592 C 3.861524149021672 -2.689350313476441 4.02427079616794 -2.959361796241839 4.031668371038224 -2.9889520957229787 C 4.031668371038224 -3.025939970074403 4.0094756464273695 -3.0888193564718245 3.961391409770518 -3.0888193564718245 C 3.935499897724521 -3.0888193564718245 3.9059095982433814 -3.0592290569906853 3.876319298762242 -3.0148436077689755 L 3.8652229364568145 -2.9963496705932635 C 3.6469944777834105 -2.6523624391250165 3.306706033750306 -2.2343994589539204 3.2179351353068872 -2.2343994589539204 C 3.214236347871745 -2.2343994589539204 3.2105375604366024 -2.2343994589539204 3.2068387730014596 -2.238098246389063 C 3.1772484735203204 -2.26398975843506 3.1661521112148927 -2.374953381489333 3.1661521112148927 -2.5118085165896034 C 3.1661521112148927 -2.7263381878278654 3.184646048390605 -2.9963496705932635 3.19204362326089 -3.085120569036682 M 3.5989102411265588 -4.668201591277647 C 3.5989102411265588 -4.67190037871279 3.602609028561701 -4.638611291796508 3.602609028561701 -4.620117354620795 C 3.5323320672939946 -4.176262862403703 3.3880793573234396 -3.8396732058057403 3.214236347871745 -3.451300525115784 C 3.225332710177172 -3.710215645575755 3.4546575311560033 -4.446274345169101 3.5989102411265588 -4.668201591277647 M 3.132863024298611 -2.4526279176273245 C 3.1291642368634687 -2.4526279176273245 3.118067874558041 -2.600579415033022 3.118067874558041 -2.6930491009115833 C 3.118067874558041 -2.7152418255224378 3.121766661993184 -2.73373576269815 3.121766661993184 -2.74853091243872 C 3.121766661993184 -2.7633260621792894 3.125465449428326 -2.7707236370495747 3.125465449428326 -2.774422424484717 C 3.125465449428326 -2.8299042360118536 3.140260599168896 -2.9408678590661266 3.140260599168896 -2.948265433936412 C 3.1439593866040383 -2.9371690716309846 3.1439593866040383 -2.918675134455272 3.1439593866040383 -2.9001811972795597 C 3.1439593866040383 -2.844699385752423 3.1365618117337535 -2.7633260621792894 3.132863024298611 -2.73373576269815 L 3.132863024298611 -2.7226394003927226 L 3.1439593866040383 -2.741133337568435 C 3.1439593866040383 -2.73373576269815 3.1365618117337535 -2.7226394003927226 3.1365618117337535 -2.7152418255224378 C 3.1365618117337535 -2.7115430380872954 3.1291642368634687 -2.700446675781868 3.1291642368634687 -2.6967478883467257 L 3.1291642368634687 -2.5672903281167403 C 3.1291642368634687 -2.5266036663301734 3.1291642368634687 -2.489615791978749 3.132863024298611 -2.4637242799327517 M 3.125465449428326 -2.4193388307110424 C 3.110670299687756 -2.4711218548030365 3.110670299687756 -2.515507304024746 3.110670299687756 -2.5598927532464555 L 3.110670299687756 -2.615374564773592 C 3.118067874558041 -2.5598927532464555 3.121766661993184 -2.489615791978749 3.125465449428326 -2.4193388307110424 M 3.132863024298611 -2.312073995091912 C 3.125465449428326 -2.3268691448324814 3.121766661993184 -2.349061869443336 3.121766661993184 -2.3675558066190483 C 3.121766661993184 -2.3786521689244755 3.125465449428326 -2.3897485312299027 3.125465449428326 -2.397146106100188 C 3.132863024298611 -2.382350956359618 3.132863024298611 -2.349061869443336 3.132863024298611 -2.312073995091912 M 3.099573937382329 -2.7966151490955715 C 3.099573937382329 -2.822506661141569 3.106971512252614 -2.855795748057851 3.110670299687756 -2.88538604753899 C 3.110670299687756 -2.844699385752423 3.106971512252614 -2.8003139365307144 3.106971512252614 -2.7559284873090046 M 3.081080000206617 -2.74853091243872 C 3.084778787641759 -2.7448321250035774 3.088477575076902 -2.7152418255224378 3.088477575076902 -2.7115430380872954 C 3.088477575076902 -2.7041454632170105 3.084778787641759 -2.6967478883467257 3.084778787641759 -2.6930491009115833 C 3.081080000206617 -2.707844250652153 3.081080000206617 -2.7263381878278654 3.081080000206617 -2.74853091243872 M 3.1143690871228986 -2.633868501949304 C 3.1143690871228986 -2.641266076819589 3.1032727248174714 -2.6523624391250165 3.1032727248174714 -2.6634588014304437 C 3.1032727248174714 -2.667157588865586 3.110670299687756 -2.6708563763007285 3.1143690871228986 -2.674555163735871 M 3.092176362512044 -2.9630605836769814 C 3.0958751499471866 -2.9630605836769814 3.0958751499471866 -2.959361796241839 3.0958751499471866 -2.9519642213715542 C 3.0958751499471866 -2.9371690716309846 3.092176362512044 -2.918675134455272 3.088477575076902 -2.9149763470201298 M 3.077381212771474 -2.815109086271284 L 3.084778787641759 -2.8373018108821384 C 3.084778787641759 -2.8299042360118536 3.088477575076902 -2.8188078737064264 3.088477575076902 -2.8188078737064264 M 3.0699836379011893 -2.641266076819589 C 3.066284850466047 -2.641266076819589 3.066284850466047 -2.648663651689874 3.066284850466047 -2.6634588014304437 C 3.066284850466047 -2.656061226560159 3.0699836379011893 -2.648663651689874 3.0699836379011893 -2.641266076819589 M 3.1365618117337535 -2.297278845351342 C 3.132863024298611 -2.300977632786484 3.132863024298611 -2.3083752076567694 3.132863024298611 -2.3083752076567694" fill="NA" transform="matrix(1,0,0,1,0,0)" fill-rule="nonzero"></path></mask></defs></svg>